<?xml version="1.0" encoding="UTF-8"?>
<!DOCTYPE svg PUBLIC "-//W3C//DTD SVG 1.1//EN" "http://www.w3.org/Graphics/SVG/1.1/DTD/svg11.dtd">
<svg version="1.2" width="215.9mm" height="279.4mm" viewBox="0 0 21590 27940" preserveAspectRatio="xMidYMid" fill-rule="evenodd" clip-path="url(#presentation_clip_path)" stroke-width="28.222" stroke-linejoin="round" xmlns="http://www.w3.org/2000/svg" xmlns:ooo="http://xml.openoffice.org/svg/export" xmlns:xlink="http://www.w3.org/1999/xlink" xml:space="preserve">
 <defs class="ClipPathGroup">
  <clipPath id="presentation_clip_path" clipPathUnits="userSpaceOnUse">
   <rect x="0" y="0" width="21590" height="27940"/>
  </clipPath>
 </defs>
 <defs class="TextShapeIndex">
  <g ooo:slide="id1" ooo:id-list="id3 id4 id5 id6 id7 id8 id9 id10 id11 id12 id13 id14"/>
 </defs>
 <defs class="EmbeddedBulletChars">
  <g id="bullet-char-template(57356)" transform="scale(0.00048828125,-0.00048828125)">
   <path d="M 580,1141 L 1163,571 580,0 -4,571 580,1141 Z"/>
  </g>
  <g id="bullet-char-template(57354)" transform="scale(0.00048828125,-0.00048828125)">
   <path d="M 8,1128 L 1137,1128 1137,0 8,0 8,1128 Z"/>
  </g>
  <g id="bullet-char-template(10146)" transform="scale(0.00048828125,-0.00048828125)">
   <path d="M 174,0 L 602,739 174,1481 1456,739 174,0 Z M 1358,739 L 309,1346 659,739 1358,739 Z"/>
  </g>
  <g id="bullet-char-template(10132)" transform="scale(0.00048828125,-0.00048828125)">
   <path d="M 2015,739 L 1276,0 717,0 1260,543 174,543 174,936 1260,936 717,1481 1274,1481 2015,739 Z"/>
  </g>
  <g id="bullet-char-template(10007)" transform="scale(0.00048828125,-0.00048828125)">
   <path d="M 0,-2 C -7,14 -16,27 -25,37 L 356,567 C 262,823 215,952 215,954 215,979 228,992 255,992 264,992 276,990 289,987 310,991 331,999 354,1012 L 381,999 492,748 772,1049 836,1024 860,1049 C 881,1039 901,1025 922,1006 886,937 835,863 770,784 769,783 710,716 594,584 L 774,223 C 774,196 753,168 711,139 L 727,119 C 717,90 699,76 672,76 641,76 570,178 457,381 L 164,-76 C 142,-110 111,-127 72,-127 30,-127 9,-110 8,-76 1,-67 -2,-52 -2,-32 -2,-23 -1,-13 0,-2 Z"/>
  </g>
  <g id="bullet-char-template(10004)" transform="scale(0.00048828125,-0.00048828125)">
   <path d="M 285,-33 C 182,-33 111,30 74,156 52,228 41,333 41,471 41,549 55,616 82,672 116,743 169,778 240,778 293,778 328,747 346,684 L 369,508 C 377,444 397,411 428,410 L 1163,1116 C 1174,1127 1196,1133 1229,1133 1271,1133 1292,1118 1292,1087 L 1292,965 C 1292,929 1282,901 1262,881 L 442,47 C 390,-6 338,-33 285,-33 Z"/>
  </g>
  <g id="bullet-char-template(9679)" transform="scale(0.00048828125,-0.00048828125)">
   <path d="M 813,0 C 632,0 489,54 383,161 276,268 223,411 223,592 223,773 276,916 383,1023 489,1130 632,1184 813,1184 992,1184 1136,1130 1245,1023 1353,916 1407,772 1407,592 1407,412 1353,268 1245,161 1136,54 992,0 813,0 Z"/>
  </g>
  <g id="bullet-char-template(8226)" transform="scale(0.00048828125,-0.00048828125)">
   <path d="M 346,457 C 273,457 209,483 155,535 101,586 74,649 74,723 74,796 101,859 155,911 209,963 273,989 346,989 419,989 480,963 531,910 582,859 608,796 608,723 608,648 583,586 532,535 482,483 420,457 346,457 Z"/>
  </g>
  <g id="bullet-char-template(8211)" transform="scale(0.00048828125,-0.00048828125)">
   <path d="M -4,459 L 1135,459 1135,606 -4,606 -4,459 Z"/>
  </g>
 </defs>
 <defs class="TextEmbeddedBitmaps"/>
 <g>
  <g id="id2" class="Master_Slide">
   <g id="bg-id2" class="Background"/>
   <g id="bo-id2" class="BackgroundObjects"/>
  </g>
 </g>
 <g class="SlideGroup">
  <g>
   <g id="id1" class="Slide" clip-path="url(#presentation_clip_path)">
    <g class="Page">
     <g class="com.sun.star.drawing.LineShape">
      <g id="id3">
       <path fill="none" stroke="rgb(0,0,0)" d="M 4400,2000 L 5570,2000"/>
       <path fill="rgb(0,0,0)" stroke="none" d="M 6000,2000 L 5550,1850 5550,2150 6000,2000 Z"/>
      </g>
     </g>
     <g class="com.sun.star.drawing.TextShape">
      <g id="id4">
       <path fill="rgb(192,192,192)" stroke="none" d="M 3020,2283 L 1939,2283 1939,1600 4100,1600 4100,2283 3020,2283 Z"/>
       <text class="TextShape"><tspan class="TextParagraph" font-family="Arial, sans-serif" font-size="388px" font-weight="400"><tspan class="TextPosition" x="2189" y="2076"><tspan fill="rgb(0,0,0)" stroke="none">string_val</tspan></tspan></tspan></text>
      </g>
     </g>
     <g class="com.sun.star.drawing.LineShape">
      <g id="id5">
       <path fill="none" stroke="rgb(0,0,0)" stroke-width="50" d="M 4700,6400 L 4700,6349"/>
       <path fill="none" stroke="rgb(0,0,0)" stroke-width="50" d="M 4700,6298 L 4700,6247"/>
       <path fill="none" stroke="rgb(0,0,0)" stroke-width="50" d="M 4700,6196 L 4700,6145"/>
       <path fill="none" stroke="rgb(0,0,0)" stroke-width="50" d="M 4700,6094 L 4700,6043"/>
       <path fill="none" stroke="rgb(0,0,0)" stroke-width="50" d="M 4700,5992 L 4700,5941"/>
       <path fill="none" stroke="rgb(0,0,0)" stroke-width="50" d="M 4700,5890 L 4700,5839"/>
       <path fill="none" stroke="rgb(0,0,0)" stroke-width="50" d="M 4700,5788 L 4700,5737"/>
       <path fill="none" stroke="rgb(0,0,0)" stroke-width="50" d="M 4700,5686 L 4700,5635"/>
       <path fill="none" stroke="rgb(0,0,0)" stroke-width="50" d="M 4700,5584 L 4700,5533"/>
       <path fill="none" stroke="rgb(0,0,0)" stroke-width="50" d="M 4700,5482 L 4700,5431"/>
       <path fill="none" stroke="rgb(0,0,0)" stroke-width="50" d="M 4700,5380 L 4700,5329"/>
       <path fill="none" stroke="rgb(0,0,0)" stroke-width="50" d="M 4700,5278 L 4700,5227"/>
       <path fill="none" stroke="rgb(0,0,0)" stroke-width="50" d="M 4700,5176 L 4700,5125"/>
       <path fill="none" stroke="rgb(0,0,0)" stroke-width="50" d="M 4700,5074 L 4700,5023"/>
       <path fill="none" stroke="rgb(0,0,0)" stroke-width="50" d="M 4700,4972 L 4700,4921"/>
       <path fill="none" stroke="rgb(0,0,0)" stroke-width="50" d="M 4700,4870 L 4700,4819"/>
       <path fill="none" stroke="rgb(0,0,0)" stroke-width="50" d="M 4700,4768 L 4700,4717"/>
       <path fill="none" stroke="rgb(0,0,0)" stroke-width="50" d="M 4700,4666 L 4700,4615"/>
       <path fill="none" stroke="rgb(0,0,0)" stroke-width="50" d="M 4700,4564 L 4700,4513"/>
       <path fill="none" stroke="rgb(0,0,0)" stroke-width="50" d="M 4700,4462 L 4700,4411"/>
       <path fill="none" stroke="rgb(0,0,0)" stroke-width="50" d="M 4700,4360 L 4700,4309"/>
       <path fill="none" stroke="rgb(0,0,0)" stroke-width="50" d="M 4700,4258 L 4700,4207"/>
       <path fill="none" stroke="rgb(0,0,0)" stroke-width="50" d="M 4700,4156 L 4700,4105"/>
       <path fill="none" stroke="rgb(0,0,0)" stroke-width="50" d="M 4700,4054 L 4700,4003"/>
       <path fill="none" stroke="rgb(0,0,0)" stroke-width="50" d="M 4700,3952 L 4700,3901"/>
       <path fill="none" stroke="rgb(0,0,0)" stroke-width="50" d="M 4700,3850 L 4700,3799"/>
       <path fill="none" stroke="rgb(0,0,0)" stroke-width="50" d="M 4700,3748 L 4700,3697"/>
       <path fill="none" stroke="rgb(0,0,0)" stroke-width="50" d="M 4700,3646 L 4700,3595"/>
       <path fill="none" stroke="rgb(0,0,0)" stroke-width="50" d="M 4700,3544 L 4700,3493"/>
       <path fill="none" stroke="rgb(0,0,0)" stroke-width="50" d="M 4700,3442 L 4700,3391"/>
       <path fill="none" stroke="rgb(0,0,0)" stroke-width="50" d="M 4700,3340 L 4700,3289"/>
       <path fill="none" stroke="rgb(0,0,0)" stroke-width="50" d="M 4700,3238 L 4700,3187"/>
       <path fill="none" stroke="rgb(0,0,0)" stroke-width="50" d="M 4700,3136 L 4700,3085"/>
       <path fill="none" stroke="rgb(0,0,0)" stroke-width="50" d="M 4700,3034 L 4700,2983"/>
       <path fill="none" stroke="rgb(0,0,0)" stroke-width="50" d="M 4700,2932 L 4700,2881"/>
       <path fill="none" stroke="rgb(0,0,0)" stroke-width="50" d="M 4700,2830 L 4700,2779"/>
       <path fill="none" stroke="rgb(0,0,0)" stroke-width="50" d="M 4700,2728 L 4700,2677"/>
       <path fill="none" stroke="rgb(0,0,0)" stroke-width="50" d="M 4700,2626 L 4700,2575"/>
       <path fill="none" stroke="rgb(0,0,0)" stroke-width="50" d="M 4700,2524 L 4700,2473"/>
       <path fill="none" stroke="rgb(0,0,0)" stroke-width="50" d="M 4700,2422 L 4700,2371"/>
       <path fill="none" stroke="rgb(0,0,0)" stroke-width="50" d="M 4700,2320 L 4700,2269"/>
       <path fill="none" stroke="rgb(0,0,0)" stroke-width="50" d="M 4700,2218 L 4700,2167"/>
       <path fill="none" stroke="rgb(0,0,0)" stroke-width="50" d="M 4700,2116 L 4700,2065"/>
       <path fill="none" stroke="rgb(0,0,0)" stroke-width="50" d="M 4700,2014 L 4700,1963"/>
       <path fill="none" stroke="rgb(0,0,0)" stroke-width="50" d="M 4700,1912 L 4700,1861"/>
       <path fill="none" stroke="rgb(0,0,0)" stroke-width="50" d="M 4700,1810 L 4700,1759"/>
       <path fill="none" stroke="rgb(0,0,0)" stroke-width="50" d="M 4700,1708 L 4700,1657"/>
       <path fill="none" stroke="rgb(0,0,0)" stroke-width="50" d="M 4700,1606 L 4700,1555"/>
       <path fill="none" stroke="rgb(0,0,0)" stroke-width="50" d="M 4700,1504 L 4700,1453"/>
       <path fill="none" stroke="rgb(0,0,0)" stroke-width="50" d="M 4700,1402 L 4700,1351"/>
       <path fill="none" stroke="rgb(0,0,0)" stroke-width="50" d="M 4700,1300 L 4700,1249"/>
       <path fill="none" stroke="rgb(0,0,0)" stroke-width="50" d="M 4700,1198 L 4700,1147"/>
      </g>
     </g>
     <g class="com.sun.star.drawing.LineShape">
      <g id="id6">
       <path fill="none" stroke="rgb(0,0,0)" stroke-width="50" d="M 9200,5400 L 9149,5400"/>
       <path fill="none" stroke="rgb(0,0,0)" stroke-width="50" d="M 9098,5400 L 9047,5400"/>
       <path fill="none" stroke="rgb(0,0,0)" stroke-width="50" d="M 8996,5400 L 8945,5400"/>
       <path fill="none" stroke="rgb(0,0,0)" stroke-width="50" d="M 8894,5400 L 8843,5400"/>
       <path fill="none" stroke="rgb(0,0,0)" stroke-width="50" d="M 8792,5400 L 8741,5400"/>
       <path fill="none" stroke="rgb(0,0,0)" stroke-width="50" d="M 8690,5400 L 8639,5400"/>
       <path fill="none" stroke="rgb(0,0,0)" stroke-width="50" d="M 8588,5400 L 8537,5400"/>
       <path fill="none" stroke="rgb(0,0,0)" stroke-width="50" d="M 8486,5400 L 8435,5400"/>
       <path fill="none" stroke="rgb(0,0,0)" stroke-width="50" d="M 8384,5400 L 8333,5400"/>
       <path fill="none" stroke="rgb(0,0,0)" stroke-width="50" d="M 8282,5400 L 8231,5400"/>
       <path fill="none" stroke="rgb(0,0,0)" stroke-width="50" d="M 8180,5400 L 8129,5400"/>
       <path fill="none" stroke="rgb(0,0,0)" stroke-width="50" d="M 8078,5400 L 8027,5400"/>
       <path fill="none" stroke="rgb(0,0,0)" stroke-width="50" d="M 7976,5400 L 7925,5400"/>
       <path fill="none" stroke="rgb(0,0,0)" stroke-width="50" d="M 7874,5400 L 7823,5400"/>
       <path fill="none" stroke="rgb(0,0,0)" stroke-width="50" d="M 7772,5400 L 7721,5400"/>
       <path fill="none" stroke="rgb(0,0,0)" stroke-width="50" d="M 7670,5400 L 7619,5400"/>
       <path fill="none" stroke="rgb(0,0,0)" stroke-width="50" d="M 7568,5400 L 7517,5400"/>
       <path fill="none" stroke="rgb(0,0,0)" stroke-width="50" d="M 7466,5400 L 7415,5400"/>
       <path fill="none" stroke="rgb(0,0,0)" stroke-width="50" d="M 7364,5400 L 7313,5400"/>
       <path fill="none" stroke="rgb(0,0,0)" stroke-width="50" d="M 7262,5400 L 7211,5400"/>
       <path fill="none" stroke="rgb(0,0,0)" stroke-width="50" d="M 7160,5400 L 7109,5400"/>
       <path fill="none" stroke="rgb(0,0,0)" stroke-width="50" d="M 7058,5400 L 7007,5400"/>
       <path fill="none" stroke="rgb(0,0,0)" stroke-width="50" d="M 6956,5400 L 6905,5400"/>
       <path fill="none" stroke="rgb(0,0,0)" stroke-width="50" d="M 6854,5400 L 6803,5400"/>
       <path fill="none" stroke="rgb(0,0,0)" stroke-width="50" d="M 6752,5400 L 6701,5400"/>
       <path fill="none" stroke="rgb(0,0,0)" stroke-width="50" d="M 6650,5400 L 6599,5400"/>
       <path fill="none" stroke="rgb(0,0,0)" stroke-width="50" d="M 6548,5400 L 6497,5400"/>
       <path fill="none" stroke="rgb(0,0,0)" stroke-width="50" d="M 6446,5400 L 6395,5400"/>
       <path fill="none" stroke="rgb(0,0,0)" stroke-width="50" d="M 6344,5400 L 6293,5400"/>
       <path fill="none" stroke="rgb(0,0,0)" stroke-width="50" d="M 6242,5400 L 6191,5400"/>
       <path fill="none" stroke="rgb(0,0,0)" stroke-width="50" d="M 6140,5400 L 6089,5400"/>
       <path fill="none" stroke="rgb(0,0,0)" stroke-width="50" d="M 6038,5400 L 5987,5400"/>
       <path fill="none" stroke="rgb(0,0,0)" stroke-width="50" d="M 5936,5400 L 5885,5400"/>
       <path fill="none" stroke="rgb(0,0,0)" stroke-width="50" d="M 5834,5400 L 5783,5400"/>
       <path fill="none" stroke="rgb(0,0,0)" stroke-width="50" d="M 5732,5400 L 5681,5400"/>
       <path fill="none" stroke="rgb(0,0,0)" stroke-width="50" d="M 5630,5400 L 5579,5400"/>
       <path fill="none" stroke="rgb(0,0,0)" stroke-width="50" d="M 5528,5400 L 5477,5400"/>
       <path fill="none" stroke="rgb(0,0,0)" stroke-width="50" d="M 5426,5400 L 5375,5400"/>
       <path fill="none" stroke="rgb(0,0,0)" stroke-width="50" d="M 5324,5400 L 5273,5400"/>
       <path fill="none" stroke="rgb(0,0,0)" stroke-width="50" d="M 5222,5400 L 5171,5400"/>
       <path fill="none" stroke="rgb(0,0,0)" stroke-width="50" d="M 5120,5400 L 5069,5400"/>
       <path fill="none" stroke="rgb(0,0,0)" stroke-width="50" d="M 5018,5400 L 4967,5400"/>
       <path fill="none" stroke="rgb(0,0,0)" stroke-width="50" d="M 4916,5400 L 4865,5400"/>
       <path fill="none" stroke="rgb(0,0,0)" stroke-width="50" d="M 4814,5400 L 4763,5400"/>
       <path fill="none" stroke="rgb(0,0,0)" stroke-width="50" d="M 4712,5400 L 4661,5400"/>
       <path fill="none" stroke="rgb(0,0,0)" stroke-width="50" d="M 4610,5400 L 4559,5400"/>
       <path fill="none" stroke="rgb(0,0,0)" stroke-width="50" d="M 4508,5400 L 4457,5400"/>
       <path fill="none" stroke="rgb(0,0,0)" stroke-width="50" d="M 4406,5400 L 4355,5400"/>
       <path fill="none" stroke="rgb(0,0,0)" stroke-width="50" d="M 4304,5400 L 4253,5400"/>
       <path fill="none" stroke="rgb(0,0,0)" stroke-width="50" d="M 4202,5400 L 4151,5400"/>
       <path fill="none" stroke="rgb(0,0,0)" stroke-width="50" d="M 4100,5400 L 4049,5400"/>
       <path fill="none" stroke="rgb(0,0,0)" stroke-width="50" d="M 3998,5400 L 3947,5400"/>
       <path fill="none" stroke="rgb(0,0,0)" stroke-width="50" d="M 3896,5400 L 3845,5400"/>
       <path fill="none" stroke="rgb(0,0,0)" stroke-width="50" d="M 3794,5400 L 3743,5400"/>
       <path fill="none" stroke="rgb(0,0,0)" stroke-width="50" d="M 3692,5400 L 3641,5400"/>
       <path fill="none" stroke="rgb(0,0,0)" stroke-width="50" d="M 3590,5400 L 3539,5400"/>
       <path fill="none" stroke="rgb(0,0,0)" stroke-width="50" d="M 3488,5400 L 3437,5400"/>
       <path fill="none" stroke="rgb(0,0,0)" stroke-width="50" d="M 3386,5400 L 3335,5400"/>
       <path fill="none" stroke="rgb(0,0,0)" stroke-width="50" d="M 3284,5400 L 3233,5400"/>
       <path fill="none" stroke="rgb(0,0,0)" stroke-width="50" d="M 3182,5400 L 3131,5400"/>
       <path fill="none" stroke="rgb(0,0,0)" stroke-width="50" d="M 3080,5400 L 3029,5400"/>
       <path fill="none" stroke="rgb(0,0,0)" stroke-width="50" d="M 2978,5400 L 2927,5400"/>
       <path fill="none" stroke="rgb(0,0,0)" stroke-width="50" d="M 2876,5400 L 2825,5400"/>
       <path fill="none" stroke="rgb(0,0,0)" stroke-width="50" d="M 2774,5400 L 2723,5400"/>
       <path fill="none" stroke="rgb(0,0,0)" stroke-width="50" d="M 2672,5400 L 2621,5400"/>
       <path fill="none" stroke="rgb(0,0,0)" stroke-width="50" d="M 2570,5400 L 2519,5400"/>
       <path fill="none" stroke="rgb(0,0,0)" stroke-width="50" d="M 2468,5400 L 2417,5400"/>
       <path fill="none" stroke="rgb(0,0,0)" stroke-width="50" d="M 2366,5400 L 2315,5400"/>
       <path fill="none" stroke="rgb(0,0,0)" stroke-width="50" d="M 2264,5400 L 2213,5400"/>
       <path fill="none" stroke="rgb(0,0,0)" stroke-width="50" d="M 2162,5400 L 2111,5400"/>
       <path fill="none" stroke="rgb(0,0,0)" stroke-width="50" d="M 2060,5400 L 2009,5400"/>
       <path fill="none" stroke="rgb(0,0,0)" stroke-width="50" d="M 1958,5400 L 1907,5400"/>
       <path fill="none" stroke="rgb(0,0,0)" stroke-width="50" d="M 1856,5400 L 1805,5400"/>
       <path fill="none" stroke="rgb(0,0,0)" stroke-width="50" d="M 1754,5400 L 1703,5400"/>
       <path fill="none" stroke="rgb(0,0,0)" stroke-width="50" d="M 1652,5400 L 1601,5400"/>
       <path fill="none" stroke="rgb(0,0,0)" stroke-width="50" d="M 1550,5400 L 1499,5400"/>
       <path fill="none" stroke="rgb(0,0,0)" stroke-width="50" d="M 1448,5400 L 1397,5400"/>
       <path fill="none" stroke="rgb(0,0,0)" stroke-width="50" d="M 1346,5400 L 1295,5400"/>
       <path fill="none" stroke="rgb(0,0,0)" stroke-width="50" d="M 1244,5400 L 1200,5400"/>
      </g>
     </g>
     <g class="com.sun.star.drawing.TextShape">
      <g id="id7">
       <text class="TextShape"><tspan class="TextParagraph" font-family="Arial, sans-serif" font-size="388px" font-weight="400"><tspan class="TextPosition" x="2091" y="6068"><tspan fill="rgb(0,0,0)" stroke="none">Variables</tspan></tspan></tspan></text>
      </g>
     </g>
     <g class="com.sun.star.drawing.TextShape">
      <g id="id8">
       <text class="TextShape"><tspan class="TextParagraph" font-family="Arial, sans-serif" font-size="388px" font-weight="400"><tspan class="TextPosition" x="5991" y="6069"><tspan fill="rgb(0,0,0)" stroke="none">Values</tspan></tspan></tspan></text>
      </g>
     </g>
     <g class="com.sun.star.drawing.TextShape">
      <g id="id9">
       <path fill="rgb(192,192,192)" stroke="none" d="M 3257,3400 L 2413,3400 2413,2717 4100,2717 4100,3400 3257,3400 Z"/>
       <text class="TextShape"><tspan class="TextParagraph" font-family="Arial, sans-serif" font-size="388px" font-weight="400"><tspan class="TextPosition" x="2663" y="3193"><tspan fill="rgb(0,0,0)" stroke="none">list_val</tspan></tspan></tspan></text>
      </g>
     </g>
     <g class="com.sun.star.drawing.TextShape">
      <g id="id10">
       <path fill="none" stroke="rgb(0,0,0)" stroke-width="50" d="M 6517,5101 L 5800,5101 5800,4368 7233,4368 7233,5101 6517,5101 Z"/>
       <text class="TextShape"><tspan class="TextParagraph" font-family="Arial, sans-serif" font-size="388px" font-weight="400"><tspan class="TextPosition" x="6075" y="4869"><tspan fill="rgb(0,0,0)" stroke="none">&apos;alan&apos;</tspan></tspan></tspan></text>
      </g>
     </g>
     <g class="com.sun.star.drawing.LineShape">
      <g id="id11">
       <path fill="none" stroke="rgb(0,0,0)" d="M 4300,3100 L 5570,3100"/>
       <path fill="rgb(0,0,0)" stroke="none" d="M 6000,3100 L 5550,2950 5550,3250 6000,3100 Z"/>
      </g>
     </g>
     <g class="com.sun.star.drawing.LineShape">
      <g id="id12">
       <path fill="none" stroke="rgb(0,0,0)" d="M 6500,3100 L 6500,3770"/>
       <path fill="rgb(0,0,0)" stroke="none" d="M 6500,4200 L 6650,3750 6350,3750 6500,4200 Z"/>
      </g>
     </g>
     <g class="com.sun.star.drawing.TextShape">
      <g id="id13">
       <text class="TextShape"><tspan class="TextParagraph" font-family="Arial, sans-serif" font-size="388px" font-weight="400"><tspan class="TextPosition" x="6176" y="2170"><tspan fill="rgb(0,0,0)" stroke="none">&apos;alan&apos;</tspan></tspan></tspan></text>
      </g>
     </g>
     <g class="com.sun.star.drawing.TextShape">
      <g id="id14">
       <path fill="none" stroke="rgb(0,0,0)" stroke-width="50" d="M 6476,3433 L 6200,3433 6200,2700 6752,2700 6752,3433 6476,3433 Z"/>
      </g>
     </g>
    </g>
   </g>
  </g>
 </g>
</svg>