<?xml version="1.0" encoding="UTF-8"?>
<!DOCTYPE svg PUBLIC "-//W3C//DTD SVG 1.1//EN" "http://www.w3.org/Graphics/SVG/1.1/DTD/svg11.dtd">
<svg version="1.2" width="215.9mm" height="279.4mm" viewBox="0 0 21590 27940" preserveAspectRatio="xMidYMid" fill-rule="evenodd" clip-path="url(#presentation_clip_path)" stroke-width="28.222" stroke-linejoin="round" xmlns="http://www.w3.org/2000/svg" xmlns:ooo="http://xml.openoffice.org/svg/export" xmlns:xlink="http://www.w3.org/1999/xlink" xml:space="preserve">
 <defs class="ClipPathGroup">
  <clipPath id="presentation_clip_path" clipPathUnits="userSpaceOnUse">
   <rect x="0" y="0" width="21590" height="27940"/>
  </clipPath>
 </defs>
 <defs class="TextShapeIndex">
  <g ooo:slide="id1" ooo:id-list="id3 id4 id5 id6 id7 id8 id9 id10 id11 id12 id13 id14 id15 id16 id17 id18 id19 id20 id21"/>
 </defs>
 <defs class="EmbeddedBulletChars">
  <g id="bullet-char-template(57356)" transform="scale(0.00048828125,-0.00048828125)">
   <path d="M 580,1141 L 1163,571 580,0 -4,571 580,1141 Z"/>
  </g>
  <g id="bullet-char-template(57354)" transform="scale(0.00048828125,-0.00048828125)">
   <path d="M 8,1128 L 1137,1128 1137,0 8,0 8,1128 Z"/>
  </g>
  <g id="bullet-char-template(10146)" transform="scale(0.00048828125,-0.00048828125)">
   <path d="M 174,0 L 602,739 174,1481 1456,739 174,0 Z M 1358,739 L 309,1346 659,739 1358,739 Z"/>
  </g>
  <g id="bullet-char-template(10132)" transform="scale(0.00048828125,-0.00048828125)">
   <path d="M 2015,739 L 1276,0 717,0 1260,543 174,543 174,936 1260,936 717,1481 1274,1481 2015,739 Z"/>
  </g>
  <g id="bullet-char-template(10007)" transform="scale(0.00048828125,-0.00048828125)">
   <path d="M 0,-2 C -7,14 -16,27 -25,37 L 356,567 C 262,823 215,952 215,954 215,979 228,992 255,992 264,992 276,990 289,987 310,991 331,999 354,1012 L 381,999 492,748 772,1049 836,1024 860,1049 C 881,1039 901,1025 922,1006 886,937 835,863 770,784 769,783 710,716 594,584 L 774,223 C 774,196 753,168 711,139 L 727,119 C 717,90 699,76 672,76 641,76 570,178 457,381 L 164,-76 C 142,-110 111,-127 72,-127 30,-127 9,-110 8,-76 1,-67 -2,-52 -2,-32 -2,-23 -1,-13 0,-2 Z"/>
  </g>
  <g id="bullet-char-template(10004)" transform="scale(0.00048828125,-0.00048828125)">
   <path d="M 285,-33 C 182,-33 111,30 74,156 52,228 41,333 41,471 41,549 55,616 82,672 116,743 169,778 240,778 293,778 328,747 346,684 L 369,508 C 377,444 397,411 428,410 L 1163,1116 C 1174,1127 1196,1133 1229,1133 1271,1133 1292,1118 1292,1087 L 1292,965 C 1292,929 1282,901 1262,881 L 442,47 C 390,-6 338,-33 285,-33 Z"/>
  </g>
  <g id="bullet-char-template(9679)" transform="scale(0.00048828125,-0.00048828125)">
   <path d="M 813,0 C 632,0 489,54 383,161 276,268 223,411 223,592 223,773 276,916 383,1023 489,1130 632,1184 813,1184 992,1184 1136,1130 1245,1023 1353,916 1407,772 1407,592 1407,412 1353,268 1245,161 1136,54 992,0 813,0 Z"/>
  </g>
  <g id="bullet-char-template(8226)" transform="scale(0.00048828125,-0.00048828125)">
   <path d="M 346,457 C 273,457 209,483 155,535 101,586 74,649 74,723 74,796 101,859 155,911 209,963 273,989 346,989 419,989 480,963 531,910 582,859 608,796 608,723 608,648 583,586 532,535 482,483 420,457 346,457 Z"/>
  </g>
  <g id="bullet-char-template(8211)" transform="scale(0.00048828125,-0.00048828125)">
   <path d="M -4,459 L 1135,459 1135,606 -4,606 -4,459 Z"/>
  </g>
 </defs>
 <defs class="TextEmbeddedBitmaps"/>
 <g>
  <g id="id2" class="Master_Slide">
   <g id="bg-id2" class="Background"/>
   <g id="bo-id2" class="BackgroundObjects"/>
  </g>
 </g>
 <g class="SlideGroup">
  <g>
   <g id="id1" class="Slide" clip-path="url(#presentation_clip_path)">
    <g class="Page">
     <g class="com.sun.star.drawing.LineShape">
      <g id="id3">
       <path fill="none" stroke="rgb(0,0,0)" d="M 7200,5300 L 8370,5300"/>
       <path fill="rgb(0,0,0)" stroke="none" d="M 8800,5300 L 8350,5150 8350,5450 8800,5300 Z"/>
      </g>
     </g>
     <g class="com.sun.star.drawing.TextShape">
      <g id="id4">
       <path fill="rgb(192,192,192)" stroke="none" d="M 5820,5583 L 4739,5583 4739,4900 6900,4900 6900,5583 5820,5583 Z"/>
       <text class="TextShape"><tspan class="TextParagraph" font-family="Arial, sans-serif" font-size="388px" font-weight="400"><tspan class="TextPosition" x="4989" y="5376"><tspan fill="rgb(0,0,0)" stroke="none">string_val</tspan></tspan></tspan></text>
      </g>
     </g>
     <g class="com.sun.star.drawing.LineShape">
      <g id="id5">
       <path fill="none" stroke="rgb(0,0,0)" stroke-width="50" d="M 7500,9700 L 7500,9649"/>
       <path fill="none" stroke="rgb(0,0,0)" stroke-width="50" d="M 7500,9598 L 7500,9547"/>
       <path fill="none" stroke="rgb(0,0,0)" stroke-width="50" d="M 7500,9496 L 7500,9445"/>
       <path fill="none" stroke="rgb(0,0,0)" stroke-width="50" d="M 7500,9394 L 7500,9343"/>
       <path fill="none" stroke="rgb(0,0,0)" stroke-width="50" d="M 7500,9292 L 7500,9241"/>
       <path fill="none" stroke="rgb(0,0,0)" stroke-width="50" d="M 7500,9190 L 7500,9139"/>
       <path fill="none" stroke="rgb(0,0,0)" stroke-width="50" d="M 7500,9088 L 7500,9037"/>
       <path fill="none" stroke="rgb(0,0,0)" stroke-width="50" d="M 7500,8986 L 7500,8935"/>
       <path fill="none" stroke="rgb(0,0,0)" stroke-width="50" d="M 7500,8884 L 7500,8833"/>
       <path fill="none" stroke="rgb(0,0,0)" stroke-width="50" d="M 7500,8782 L 7500,8731"/>
       <path fill="none" stroke="rgb(0,0,0)" stroke-width="50" d="M 7500,8680 L 7500,8629"/>
       <path fill="none" stroke="rgb(0,0,0)" stroke-width="50" d="M 7500,8578 L 7500,8527"/>
       <path fill="none" stroke="rgb(0,0,0)" stroke-width="50" d="M 7500,8476 L 7500,8425"/>
       <path fill="none" stroke="rgb(0,0,0)" stroke-width="50" d="M 7500,8374 L 7500,8323"/>
       <path fill="none" stroke="rgb(0,0,0)" stroke-width="50" d="M 7500,8272 L 7500,8221"/>
       <path fill="none" stroke="rgb(0,0,0)" stroke-width="50" d="M 7500,8170 L 7500,8119"/>
       <path fill="none" stroke="rgb(0,0,0)" stroke-width="50" d="M 7500,8068 L 7500,8017"/>
       <path fill="none" stroke="rgb(0,0,0)" stroke-width="50" d="M 7500,7966 L 7500,7915"/>
       <path fill="none" stroke="rgb(0,0,0)" stroke-width="50" d="M 7500,7864 L 7500,7813"/>
       <path fill="none" stroke="rgb(0,0,0)" stroke-width="50" d="M 7500,7762 L 7500,7711"/>
       <path fill="none" stroke="rgb(0,0,0)" stroke-width="50" d="M 7500,7660 L 7500,7609"/>
       <path fill="none" stroke="rgb(0,0,0)" stroke-width="50" d="M 7500,7558 L 7500,7507"/>
       <path fill="none" stroke="rgb(0,0,0)" stroke-width="50" d="M 7500,7456 L 7500,7405"/>
       <path fill="none" stroke="rgb(0,0,0)" stroke-width="50" d="M 7500,7354 L 7500,7303"/>
       <path fill="none" stroke="rgb(0,0,0)" stroke-width="50" d="M 7500,7252 L 7500,7201"/>
       <path fill="none" stroke="rgb(0,0,0)" stroke-width="50" d="M 7500,7150 L 7500,7099"/>
       <path fill="none" stroke="rgb(0,0,0)" stroke-width="50" d="M 7500,7048 L 7500,6997"/>
       <path fill="none" stroke="rgb(0,0,0)" stroke-width="50" d="M 7500,6946 L 7500,6895"/>
       <path fill="none" stroke="rgb(0,0,0)" stroke-width="50" d="M 7500,6844 L 7500,6793"/>
       <path fill="none" stroke="rgb(0,0,0)" stroke-width="50" d="M 7500,6742 L 7500,6691"/>
       <path fill="none" stroke="rgb(0,0,0)" stroke-width="50" d="M 7500,6640 L 7500,6589"/>
       <path fill="none" stroke="rgb(0,0,0)" stroke-width="50" d="M 7500,6538 L 7500,6487"/>
       <path fill="none" stroke="rgb(0,0,0)" stroke-width="50" d="M 7500,6436 L 7500,6385"/>
       <path fill="none" stroke="rgb(0,0,0)" stroke-width="50" d="M 7500,6334 L 7500,6283"/>
       <path fill="none" stroke="rgb(0,0,0)" stroke-width="50" d="M 7500,6232 L 7500,6181"/>
       <path fill="none" stroke="rgb(0,0,0)" stroke-width="50" d="M 7500,6130 L 7500,6079"/>
       <path fill="none" stroke="rgb(0,0,0)" stroke-width="50" d="M 7500,6028 L 7500,5977"/>
       <path fill="none" stroke="rgb(0,0,0)" stroke-width="50" d="M 7500,5926 L 7500,5875"/>
       <path fill="none" stroke="rgb(0,0,0)" stroke-width="50" d="M 7500,5824 L 7500,5773"/>
       <path fill="none" stroke="rgb(0,0,0)" stroke-width="50" d="M 7500,5722 L 7500,5671"/>
       <path fill="none" stroke="rgb(0,0,0)" stroke-width="50" d="M 7500,5620 L 7500,5569"/>
       <path fill="none" stroke="rgb(0,0,0)" stroke-width="50" d="M 7500,5518 L 7500,5467"/>
       <path fill="none" stroke="rgb(0,0,0)" stroke-width="50" d="M 7500,5416 L 7500,5365"/>
       <path fill="none" stroke="rgb(0,0,0)" stroke-width="50" d="M 7500,5314 L 7500,5263"/>
       <path fill="none" stroke="rgb(0,0,0)" stroke-width="50" d="M 7500,5212 L 7500,5161"/>
       <path fill="none" stroke="rgb(0,0,0)" stroke-width="50" d="M 7500,5110 L 7500,5059"/>
       <path fill="none" stroke="rgb(0,0,0)" stroke-width="50" d="M 7500,5008 L 7500,4957"/>
       <path fill="none" stroke="rgb(0,0,0)" stroke-width="50" d="M 7500,4906 L 7500,4855"/>
       <path fill="none" stroke="rgb(0,0,0)" stroke-width="50" d="M 7500,4804 L 7500,4753"/>
       <path fill="none" stroke="rgb(0,0,0)" stroke-width="50" d="M 7500,4702 L 7500,4651"/>
       <path fill="none" stroke="rgb(0,0,0)" stroke-width="50" d="M 7500,4600 L 7500,4549"/>
       <path fill="none" stroke="rgb(0,0,0)" stroke-width="50" d="M 7500,4498 L 7500,4447"/>
       <path fill="none" stroke="rgb(0,0,0)" stroke-width="50" d="M 7500,4396 L 7500,4345"/>
       <path fill="none" stroke="rgb(0,0,0)" stroke-width="50" d="M 7500,4294 L 7500,4243"/>
       <path fill="none" stroke="rgb(0,0,0)" stroke-width="50" d="M 7500,4192 L 7500,4141"/>
       <path fill="none" stroke="rgb(0,0,0)" stroke-width="50" d="M 7500,4090 L 7500,4039"/>
       <path fill="none" stroke="rgb(0,0,0)" stroke-width="50" d="M 7500,3988 L 7500,3937"/>
       <path fill="none" stroke="rgb(0,0,0)" stroke-width="50" d="M 7500,3886 L 7500,3835"/>
       <path fill="none" stroke="rgb(0,0,0)" stroke-width="50" d="M 7500,3784 L 7500,3733"/>
       <path fill="none" stroke="rgb(0,0,0)" stroke-width="50" d="M 7500,3682 L 7500,3631"/>
       <path fill="none" stroke="rgb(0,0,0)" stroke-width="50" d="M 7500,3580 L 7500,3529"/>
       <path fill="none" stroke="rgb(0,0,0)" stroke-width="50" d="M 7500,3478 L 7500,3427"/>
       <path fill="none" stroke="rgb(0,0,0)" stroke-width="50" d="M 7500,3376 L 7500,3325"/>
       <path fill="none" stroke="rgb(0,0,0)" stroke-width="50" d="M 7500,3274 L 7500,3223"/>
       <path fill="none" stroke="rgb(0,0,0)" stroke-width="50" d="M 7500,3172 L 7500,3121"/>
       <path fill="none" stroke="rgb(0,0,0)" stroke-width="50" d="M 7500,3070 L 7500,3019"/>
       <path fill="none" stroke="rgb(0,0,0)" stroke-width="50" d="M 7500,2968 L 7500,2917"/>
       <path fill="none" stroke="rgb(0,0,0)" stroke-width="50" d="M 7500,2866 L 7500,2815"/>
       <path fill="none" stroke="rgb(0,0,0)" stroke-width="50" d="M 7500,2764 L 7500,2713"/>
       <path fill="none" stroke="rgb(0,0,0)" stroke-width="50" d="M 7500,2662 L 7500,2611"/>
       <path fill="none" stroke="rgb(0,0,0)" stroke-width="50" d="M 7500,2560 L 7500,2509"/>
       <path fill="none" stroke="rgb(0,0,0)" stroke-width="50" d="M 7500,2458 L 7500,2407"/>
       <path fill="none" stroke="rgb(0,0,0)" stroke-width="50" d="M 7500,2356 L 7500,2305"/>
       <path fill="none" stroke="rgb(0,0,0)" stroke-width="50" d="M 7500,2254 L 7500,2203"/>
       <path fill="none" stroke="rgb(0,0,0)" stroke-width="50" d="M 7500,2152 L 7500,2101"/>
       <path fill="none" stroke="rgb(0,0,0)" stroke-width="50" d="M 7500,2050 L 7500,1999"/>
       <path fill="none" stroke="rgb(0,0,0)" stroke-width="50" d="M 7500,1948 L 7500,1897"/>
       <path fill="none" stroke="rgb(0,0,0)" stroke-width="50" d="M 7500,1846 L 7500,1795"/>
       <path fill="none" stroke="rgb(0,0,0)" stroke-width="50" d="M 7500,1744 L 7500,1693"/>
       <path fill="none" stroke="rgb(0,0,0)" stroke-width="50" d="M 7500,1642 L 7500,1591"/>
       <path fill="none" stroke="rgb(0,0,0)" stroke-width="50" d="M 7500,1540 L 7500,1489"/>
       <path fill="none" stroke="rgb(0,0,0)" stroke-width="50" d="M 7500,1438 L 7500,1387"/>
       <path fill="none" stroke="rgb(0,0,0)" stroke-width="50" d="M 7500,1336 L 7500,1300"/>
      </g>
     </g>
     <g class="com.sun.star.drawing.LineShape">
      <g id="id6">
       <path fill="none" stroke="rgb(0,0,0)" stroke-width="50" d="M 12000,8700 L 11949,8700"/>
       <path fill="none" stroke="rgb(0,0,0)" stroke-width="50" d="M 11898,8700 L 11847,8700"/>
       <path fill="none" stroke="rgb(0,0,0)" stroke-width="50" d="M 11796,8700 L 11745,8700"/>
       <path fill="none" stroke="rgb(0,0,0)" stroke-width="50" d="M 11694,8700 L 11643,8700"/>
       <path fill="none" stroke="rgb(0,0,0)" stroke-width="50" d="M 11592,8700 L 11541,8700"/>
       <path fill="none" stroke="rgb(0,0,0)" stroke-width="50" d="M 11490,8700 L 11439,8700"/>
       <path fill="none" stroke="rgb(0,0,0)" stroke-width="50" d="M 11388,8700 L 11337,8700"/>
       <path fill="none" stroke="rgb(0,0,0)" stroke-width="50" d="M 11286,8700 L 11235,8700"/>
       <path fill="none" stroke="rgb(0,0,0)" stroke-width="50" d="M 11184,8700 L 11133,8700"/>
       <path fill="none" stroke="rgb(0,0,0)" stroke-width="50" d="M 11082,8700 L 11031,8700"/>
       <path fill="none" stroke="rgb(0,0,0)" stroke-width="50" d="M 10980,8700 L 10929,8700"/>
       <path fill="none" stroke="rgb(0,0,0)" stroke-width="50" d="M 10878,8700 L 10827,8700"/>
       <path fill="none" stroke="rgb(0,0,0)" stroke-width="50" d="M 10776,8700 L 10725,8700"/>
       <path fill="none" stroke="rgb(0,0,0)" stroke-width="50" d="M 10674,8700 L 10623,8700"/>
       <path fill="none" stroke="rgb(0,0,0)" stroke-width="50" d="M 10572,8700 L 10521,8700"/>
       <path fill="none" stroke="rgb(0,0,0)" stroke-width="50" d="M 10470,8700 L 10419,8700"/>
       <path fill="none" stroke="rgb(0,0,0)" stroke-width="50" d="M 10368,8700 L 10317,8700"/>
       <path fill="none" stroke="rgb(0,0,0)" stroke-width="50" d="M 10266,8700 L 10215,8700"/>
       <path fill="none" stroke="rgb(0,0,0)" stroke-width="50" d="M 10164,8700 L 10113,8700"/>
       <path fill="none" stroke="rgb(0,0,0)" stroke-width="50" d="M 10062,8700 L 10011,8700"/>
       <path fill="none" stroke="rgb(0,0,0)" stroke-width="50" d="M 9960,8700 L 9909,8700"/>
       <path fill="none" stroke="rgb(0,0,0)" stroke-width="50" d="M 9858,8700 L 9807,8700"/>
       <path fill="none" stroke="rgb(0,0,0)" stroke-width="50" d="M 9756,8700 L 9705,8700"/>
       <path fill="none" stroke="rgb(0,0,0)" stroke-width="50" d="M 9654,8700 L 9603,8700"/>
       <path fill="none" stroke="rgb(0,0,0)" stroke-width="50" d="M 9552,8700 L 9501,8700"/>
       <path fill="none" stroke="rgb(0,0,0)" stroke-width="50" d="M 9450,8700 L 9399,8700"/>
       <path fill="none" stroke="rgb(0,0,0)" stroke-width="50" d="M 9348,8700 L 9297,8700"/>
       <path fill="none" stroke="rgb(0,0,0)" stroke-width="50" d="M 9246,8700 L 9195,8700"/>
       <path fill="none" stroke="rgb(0,0,0)" stroke-width="50" d="M 9144,8700 L 9093,8700"/>
       <path fill="none" stroke="rgb(0,0,0)" stroke-width="50" d="M 9042,8700 L 8991,8700"/>
       <path fill="none" stroke="rgb(0,0,0)" stroke-width="50" d="M 8940,8700 L 8889,8700"/>
       <path fill="none" stroke="rgb(0,0,0)" stroke-width="50" d="M 8838,8700 L 8787,8700"/>
       <path fill="none" stroke="rgb(0,0,0)" stroke-width="50" d="M 8736,8700 L 8685,8700"/>
       <path fill="none" stroke="rgb(0,0,0)" stroke-width="50" d="M 8634,8700 L 8583,8700"/>
       <path fill="none" stroke="rgb(0,0,0)" stroke-width="50" d="M 8532,8700 L 8481,8700"/>
       <path fill="none" stroke="rgb(0,0,0)" stroke-width="50" d="M 8430,8700 L 8379,8700"/>
       <path fill="none" stroke="rgb(0,0,0)" stroke-width="50" d="M 8328,8700 L 8277,8700"/>
       <path fill="none" stroke="rgb(0,0,0)" stroke-width="50" d="M 8226,8700 L 8175,8700"/>
       <path fill="none" stroke="rgb(0,0,0)" stroke-width="50" d="M 8124,8700 L 8073,8700"/>
       <path fill="none" stroke="rgb(0,0,0)" stroke-width="50" d="M 8022,8700 L 7971,8700"/>
       <path fill="none" stroke="rgb(0,0,0)" stroke-width="50" d="M 7920,8700 L 7869,8700"/>
       <path fill="none" stroke="rgb(0,0,0)" stroke-width="50" d="M 7818,8700 L 7767,8700"/>
       <path fill="none" stroke="rgb(0,0,0)" stroke-width="50" d="M 7716,8700 L 7665,8700"/>
       <path fill="none" stroke="rgb(0,0,0)" stroke-width="50" d="M 7614,8700 L 7563,8700"/>
       <path fill="none" stroke="rgb(0,0,0)" stroke-width="50" d="M 7512,8700 L 7461,8700"/>
       <path fill="none" stroke="rgb(0,0,0)" stroke-width="50" d="M 7410,8700 L 7359,8700"/>
       <path fill="none" stroke="rgb(0,0,0)" stroke-width="50" d="M 7308,8700 L 7257,8700"/>
       <path fill="none" stroke="rgb(0,0,0)" stroke-width="50" d="M 7206,8700 L 7155,8700"/>
       <path fill="none" stroke="rgb(0,0,0)" stroke-width="50" d="M 7104,8700 L 7053,8700"/>
       <path fill="none" stroke="rgb(0,0,0)" stroke-width="50" d="M 7002,8700 L 6951,8700"/>
       <path fill="none" stroke="rgb(0,0,0)" stroke-width="50" d="M 6900,8700 L 6849,8700"/>
       <path fill="none" stroke="rgb(0,0,0)" stroke-width="50" d="M 6798,8700 L 6747,8700"/>
       <path fill="none" stroke="rgb(0,0,0)" stroke-width="50" d="M 6696,8700 L 6645,8700"/>
       <path fill="none" stroke="rgb(0,0,0)" stroke-width="50" d="M 6594,8700 L 6543,8700"/>
       <path fill="none" stroke="rgb(0,0,0)" stroke-width="50" d="M 6492,8700 L 6441,8700"/>
       <path fill="none" stroke="rgb(0,0,0)" stroke-width="50" d="M 6390,8700 L 6339,8700"/>
       <path fill="none" stroke="rgb(0,0,0)" stroke-width="50" d="M 6288,8700 L 6237,8700"/>
       <path fill="none" stroke="rgb(0,0,0)" stroke-width="50" d="M 6186,8700 L 6135,8700"/>
       <path fill="none" stroke="rgb(0,0,0)" stroke-width="50" d="M 6084,8700 L 6033,8700"/>
       <path fill="none" stroke="rgb(0,0,0)" stroke-width="50" d="M 5982,8700 L 5931,8700"/>
       <path fill="none" stroke="rgb(0,0,0)" stroke-width="50" d="M 5880,8700 L 5829,8700"/>
       <path fill="none" stroke="rgb(0,0,0)" stroke-width="50" d="M 5778,8700 L 5727,8700"/>
       <path fill="none" stroke="rgb(0,0,0)" stroke-width="50" d="M 5676,8700 L 5625,8700"/>
       <path fill="none" stroke="rgb(0,0,0)" stroke-width="50" d="M 5574,8700 L 5523,8700"/>
       <path fill="none" stroke="rgb(0,0,0)" stroke-width="50" d="M 5472,8700 L 5421,8700"/>
       <path fill="none" stroke="rgb(0,0,0)" stroke-width="50" d="M 5370,8700 L 5319,8700"/>
       <path fill="none" stroke="rgb(0,0,0)" stroke-width="50" d="M 5268,8700 L 5217,8700"/>
       <path fill="none" stroke="rgb(0,0,0)" stroke-width="50" d="M 5166,8700 L 5115,8700"/>
       <path fill="none" stroke="rgb(0,0,0)" stroke-width="50" d="M 5064,8700 L 5013,8700"/>
       <path fill="none" stroke="rgb(0,0,0)" stroke-width="50" d="M 4962,8700 L 4911,8700"/>
       <path fill="none" stroke="rgb(0,0,0)" stroke-width="50" d="M 4860,8700 L 4809,8700"/>
       <path fill="none" stroke="rgb(0,0,0)" stroke-width="50" d="M 4758,8700 L 4707,8700"/>
       <path fill="none" stroke="rgb(0,0,0)" stroke-width="50" d="M 4656,8700 L 4605,8700"/>
       <path fill="none" stroke="rgb(0,0,0)" stroke-width="50" d="M 4554,8700 L 4503,8700"/>
       <path fill="none" stroke="rgb(0,0,0)" stroke-width="50" d="M 4452,8700 L 4401,8700"/>
       <path fill="none" stroke="rgb(0,0,0)" stroke-width="50" d="M 4350,8700 L 4299,8700"/>
       <path fill="none" stroke="rgb(0,0,0)" stroke-width="50" d="M 4248,8700 L 4197,8700"/>
       <path fill="none" stroke="rgb(0,0,0)" stroke-width="50" d="M 4146,8700 L 4095,8700"/>
       <path fill="none" stroke="rgb(0,0,0)" stroke-width="50" d="M 4044,8700 L 4000,8700"/>
      </g>
     </g>
     <g class="com.sun.star.drawing.TextShape">
      <g id="id7">
       <text class="TextShape"><tspan class="TextParagraph" font-family="Arial, sans-serif" font-size="388px" font-weight="400"><tspan class="TextPosition" x="4891" y="9368"><tspan fill="rgb(0,0,0)" stroke="none">Variables</tspan></tspan></tspan></text>
      </g>
     </g>
     <g class="com.sun.star.drawing.TextShape">
      <g id="id8">
       <text class="TextShape"><tspan class="TextParagraph" font-family="Arial, sans-serif" font-size="388px" font-weight="400"><tspan class="TextPosition" x="8791" y="9369"><tspan fill="rgb(0,0,0)" stroke="none">Values</tspan></tspan></tspan></text>
      </g>
     </g>
     <g class="com.sun.star.drawing.TextShape">
      <g id="id9">
       <path fill="rgb(192,192,192)" stroke="none" d="M 6057,6700 L 5213,6700 5213,6017 6900,6017 6900,6700 6057,6700 Z"/>
       <text class="TextShape"><tspan class="TextParagraph" font-family="Arial, sans-serif" font-size="388px" font-weight="400"><tspan class="TextPosition" x="5463" y="6493"><tspan fill="rgb(0,0,0)" stroke="none">list_val</tspan></tspan></tspan></text>
      </g>
     </g>
     <g class="com.sun.star.drawing.TextShape">
      <g id="id10">
       <path fill="none" stroke="rgb(0,0,0)" stroke-width="50" d="M 9317,8401 L 8600,8401 8600,7668 10033,7668 10033,8401 9317,8401 Z"/>
       <text class="TextShape"><tspan class="TextParagraph" font-family="Arial, sans-serif" font-size="388px" font-weight="400"><tspan class="TextPosition" x="8875" y="8169"><tspan fill="rgb(0,0,0)" stroke="none">&apos;alan&apos;</tspan></tspan></tspan></text>
      </g>
     </g>
     <g class="com.sun.star.drawing.LineShape">
      <g id="id11">
       <path fill="none" stroke="rgb(0,0,0)" d="M 7100,6400 L 8370,6400"/>
       <path fill="rgb(0,0,0)" stroke="none" d="M 8800,6400 L 8350,6250 8350,6550 8800,6400 Z"/>
      </g>
     </g>
     <g class="com.sun.star.drawing.LineShape">
      <g id="id12">
       <path fill="none" stroke="rgb(0,0,0)" d="M 9300,6400 L 9300,7070"/>
       <path fill="rgb(0,0,0)" stroke="none" d="M 9300,7500 L 9450,7050 9150,7050 9300,7500 Z"/>
      </g>
     </g>
     <g class="com.sun.star.drawing.TextShape">
      <g id="id13">
       <text class="TextShape"><tspan class="TextParagraph" font-family="Arial, sans-serif" font-size="388px" font-weight="400"><tspan class="TextPosition" x="8976" y="5470"><tspan fill="rgb(0,0,0)" stroke="none">&apos;alan&apos;</tspan></tspan></tspan></text>
      </g>
     </g>
     <g class="com.sun.star.drawing.LineShape">
      <g id="id14">
       <path fill="none" stroke="rgb(0,0,0)" stroke-width="50" d="M 12000,3900 L 11949,3900"/>
       <path fill="none" stroke="rgb(0,0,0)" stroke-width="50" d="M 11898,3900 L 11847,3900"/>
       <path fill="none" stroke="rgb(0,0,0)" stroke-width="50" d="M 11796,3900 L 11745,3900"/>
       <path fill="none" stroke="rgb(0,0,0)" stroke-width="50" d="M 11694,3900 L 11643,3900"/>
       <path fill="none" stroke="rgb(0,0,0)" stroke-width="50" d="M 11592,3900 L 11541,3900"/>
       <path fill="none" stroke="rgb(0,0,0)" stroke-width="50" d="M 11490,3900 L 11439,3900"/>
       <path fill="none" stroke="rgb(0,0,0)" stroke-width="50" d="M 11388,3900 L 11337,3900"/>
       <path fill="none" stroke="rgb(0,0,0)" stroke-width="50" d="M 11286,3900 L 11235,3900"/>
       <path fill="none" stroke="rgb(0,0,0)" stroke-width="50" d="M 11184,3900 L 11133,3900"/>
       <path fill="none" stroke="rgb(0,0,0)" stroke-width="50" d="M 11082,3900 L 11031,3900"/>
       <path fill="none" stroke="rgb(0,0,0)" stroke-width="50" d="M 10980,3900 L 10929,3900"/>
       <path fill="none" stroke="rgb(0,0,0)" stroke-width="50" d="M 10878,3900 L 10827,3900"/>
       <path fill="none" stroke="rgb(0,0,0)" stroke-width="50" d="M 10776,3900 L 10725,3900"/>
       <path fill="none" stroke="rgb(0,0,0)" stroke-width="50" d="M 10674,3900 L 10623,3900"/>
       <path fill="none" stroke="rgb(0,0,0)" stroke-width="50" d="M 10572,3900 L 10521,3900"/>
       <path fill="none" stroke="rgb(0,0,0)" stroke-width="50" d="M 10470,3900 L 10419,3900"/>
       <path fill="none" stroke="rgb(0,0,0)" stroke-width="50" d="M 10368,3900 L 10317,3900"/>
       <path fill="none" stroke="rgb(0,0,0)" stroke-width="50" d="M 10266,3900 L 10215,3900"/>
       <path fill="none" stroke="rgb(0,0,0)" stroke-width="50" d="M 10164,3900 L 10113,3900"/>
       <path fill="none" stroke="rgb(0,0,0)" stroke-width="50" d="M 10062,3900 L 10011,3900"/>
       <path fill="none" stroke="rgb(0,0,0)" stroke-width="50" d="M 9960,3900 L 9909,3900"/>
       <path fill="none" stroke="rgb(0,0,0)" stroke-width="50" d="M 9858,3900 L 9807,3900"/>
       <path fill="none" stroke="rgb(0,0,0)" stroke-width="50" d="M 9756,3900 L 9705,3900"/>
       <path fill="none" stroke="rgb(0,0,0)" stroke-width="50" d="M 9654,3900 L 9603,3900"/>
       <path fill="none" stroke="rgb(0,0,0)" stroke-width="50" d="M 9552,3900 L 9501,3900"/>
       <path fill="none" stroke="rgb(0,0,0)" stroke-width="50" d="M 9450,3900 L 9399,3900"/>
       <path fill="none" stroke="rgb(0,0,0)" stroke-width="50" d="M 9348,3900 L 9297,3900"/>
       <path fill="none" stroke="rgb(0,0,0)" stroke-width="50" d="M 9246,3900 L 9195,3900"/>
       <path fill="none" stroke="rgb(0,0,0)" stroke-width="50" d="M 9144,3900 L 9093,3900"/>
       <path fill="none" stroke="rgb(0,0,0)" stroke-width="50" d="M 9042,3900 L 8991,3900"/>
       <path fill="none" stroke="rgb(0,0,0)" stroke-width="50" d="M 8940,3900 L 8889,3900"/>
       <path fill="none" stroke="rgb(0,0,0)" stroke-width="50" d="M 8838,3900 L 8787,3900"/>
       <path fill="none" stroke="rgb(0,0,0)" stroke-width="50" d="M 8736,3900 L 8685,3900"/>
       <path fill="none" stroke="rgb(0,0,0)" stroke-width="50" d="M 8634,3900 L 8583,3900"/>
       <path fill="none" stroke="rgb(0,0,0)" stroke-width="50" d="M 8532,3900 L 8481,3900"/>
       <path fill="none" stroke="rgb(0,0,0)" stroke-width="50" d="M 8430,3900 L 8379,3900"/>
       <path fill="none" stroke="rgb(0,0,0)" stroke-width="50" d="M 8328,3900 L 8277,3900"/>
       <path fill="none" stroke="rgb(0,0,0)" stroke-width="50" d="M 8226,3900 L 8175,3900"/>
       <path fill="none" stroke="rgb(0,0,0)" stroke-width="50" d="M 8124,3900 L 8073,3900"/>
       <path fill="none" stroke="rgb(0,0,0)" stroke-width="50" d="M 8022,3900 L 7971,3900"/>
       <path fill="none" stroke="rgb(0,0,0)" stroke-width="50" d="M 7920,3900 L 7869,3900"/>
       <path fill="none" stroke="rgb(0,0,0)" stroke-width="50" d="M 7818,3900 L 7767,3900"/>
       <path fill="none" stroke="rgb(0,0,0)" stroke-width="50" d="M 7716,3900 L 7665,3900"/>
       <path fill="none" stroke="rgb(0,0,0)" stroke-width="50" d="M 7614,3900 L 7563,3900"/>
       <path fill="none" stroke="rgb(0,0,0)" stroke-width="50" d="M 7512,3900 L 7461,3900"/>
       <path fill="none" stroke="rgb(0,0,0)" stroke-width="50" d="M 7410,3900 L 7359,3900"/>
       <path fill="none" stroke="rgb(0,0,0)" stroke-width="50" d="M 7308,3900 L 7257,3900"/>
       <path fill="none" stroke="rgb(0,0,0)" stroke-width="50" d="M 7206,3900 L 7155,3900"/>
       <path fill="none" stroke="rgb(0,0,0)" stroke-width="50" d="M 7104,3900 L 7053,3900"/>
       <path fill="none" stroke="rgb(0,0,0)" stroke-width="50" d="M 7002,3900 L 6951,3900"/>
       <path fill="none" stroke="rgb(0,0,0)" stroke-width="50" d="M 6900,3900 L 6849,3900"/>
       <path fill="none" stroke="rgb(0,0,0)" stroke-width="50" d="M 6798,3900 L 6747,3900"/>
       <path fill="none" stroke="rgb(0,0,0)" stroke-width="50" d="M 6696,3900 L 6645,3900"/>
       <path fill="none" stroke="rgb(0,0,0)" stroke-width="50" d="M 6594,3900 L 6543,3900"/>
       <path fill="none" stroke="rgb(0,0,0)" stroke-width="50" d="M 6492,3900 L 6441,3900"/>
       <path fill="none" stroke="rgb(0,0,0)" stroke-width="50" d="M 6390,3900 L 6339,3900"/>
       <path fill="none" stroke="rgb(0,0,0)" stroke-width="50" d="M 6288,3900 L 6237,3900"/>
       <path fill="none" stroke="rgb(0,0,0)" stroke-width="50" d="M 6186,3900 L 6135,3900"/>
       <path fill="none" stroke="rgb(0,0,0)" stroke-width="50" d="M 6084,3900 L 6033,3900"/>
       <path fill="none" stroke="rgb(0,0,0)" stroke-width="50" d="M 5982,3900 L 5931,3900"/>
       <path fill="none" stroke="rgb(0,0,0)" stroke-width="50" d="M 5880,3900 L 5829,3900"/>
       <path fill="none" stroke="rgb(0,0,0)" stroke-width="50" d="M 5778,3900 L 5727,3900"/>
       <path fill="none" stroke="rgb(0,0,0)" stroke-width="50" d="M 5676,3900 L 5625,3900"/>
       <path fill="none" stroke="rgb(0,0,0)" stroke-width="50" d="M 5574,3900 L 5523,3900"/>
       <path fill="none" stroke="rgb(0,0,0)" stroke-width="50" d="M 5472,3900 L 5421,3900"/>
       <path fill="none" stroke="rgb(0,0,0)" stroke-width="50" d="M 5370,3900 L 5319,3900"/>
       <path fill="none" stroke="rgb(0,0,0)" stroke-width="50" d="M 5268,3900 L 5217,3900"/>
       <path fill="none" stroke="rgb(0,0,0)" stroke-width="50" d="M 5166,3900 L 5115,3900"/>
       <path fill="none" stroke="rgb(0,0,0)" stroke-width="50" d="M 5064,3900 L 5013,3900"/>
       <path fill="none" stroke="rgb(0,0,0)" stroke-width="50" d="M 4962,3900 L 4911,3900"/>
       <path fill="none" stroke="rgb(0,0,0)" stroke-width="50" d="M 4860,3900 L 4809,3900"/>
       <path fill="none" stroke="rgb(0,0,0)" stroke-width="50" d="M 4758,3900 L 4707,3900"/>
       <path fill="none" stroke="rgb(0,0,0)" stroke-width="50" d="M 4656,3900 L 4605,3900"/>
       <path fill="none" stroke="rgb(0,0,0)" stroke-width="50" d="M 4554,3900 L 4503,3900"/>
       <path fill="none" stroke="rgb(0,0,0)" stroke-width="50" d="M 4452,3900 L 4401,3900"/>
       <path fill="none" stroke="rgb(0,0,0)" stroke-width="50" d="M 4350,3900 L 4299,3900"/>
       <path fill="none" stroke="rgb(0,0,0)" stroke-width="50" d="M 4248,3900 L 4197,3900"/>
       <path fill="none" stroke="rgb(0,0,0)" stroke-width="50" d="M 4146,3900 L 4095,3900"/>
       <path fill="none" stroke="rgb(0,0,0)" stroke-width="50" d="M 4044,3900 L 4000,3900"/>
      </g>
     </g>
     <g class="com.sun.star.drawing.LineShape">
      <g id="id15">
       <path fill="none" stroke="rgb(0,0,0)" d="M 7201,2000 L 8508,4615"/>
       <path fill="rgb(0,0,0)" stroke="none" d="M 8700,5000 L 8633,4530 8365,4665 8700,5000 Z"/>
      </g>
     </g>
     <g class="com.sun.star.drawing.TextShape">
      <g id="id16">
       <path fill="rgb(192,192,192)" stroke="none" d="M 5981,2283 L 5040,2283 5040,1600 6922,1600 6922,2283 5981,2283 Z"/>
       <text class="TextShape"><tspan class="TextParagraph" font-family="Arial, sans-serif" font-size="388px" font-weight="400"><tspan class="TextPosition" x="5290" y="2076"><tspan fill="rgb(0,0,0)" stroke="none">a_string</tspan></tspan></tspan></text>
      </g>
     </g>
     <g class="com.sun.star.drawing.TextShape">
      <g id="id17">
       <path fill="rgb(192,192,192)" stroke="none" d="M 6218,3400 L 5514,3400 5514,2717 6922,2717 6922,3400 6218,3400 Z"/>
       <text class="TextShape"><tspan class="TextParagraph" font-family="Arial, sans-serif" font-size="388px" font-weight="400"><tspan class="TextPosition" x="5764" y="3193"><tspan fill="rgb(0,0,0)" stroke="none">a_list</tspan></tspan></tspan></text>
      </g>
     </g>
     <g class="com.sun.star.drawing.LineShape">
      <g id="id18">
       <path fill="none" stroke="rgb(0,0,0)" d="M 7101,3100 L 8588,5726"/>
       <path fill="rgb(0,0,0)" stroke="none" d="M 8800,6100 L 8709,5635 8448,5782 8800,6100 Z"/>
      </g>
     </g>
     <g class="com.sun.star.drawing.TextShape">
      <g id="id19">
       <text class="TextShape"><tspan class="TextParagraph" font-family="Arial, sans-serif" font-size="388px" font-style="italic" font-weight="400"><tspan class="TextPosition" x="1431" y="2569"><tspan fill="rgb(0,0,0)" stroke="none">appender</tspan></tspan></tspan></text>
      </g>
     </g>
     <g class="com.sun.star.drawing.CustomShape">
      <g id="id20">
       <path fill="none" stroke="rgb(0,0,0)" stroke-width="50" d="M 3599,1400 C 3569,1400 3538,1491 3538,1583 L 3538,2317 C 3538,2408 3508,2500 3478,2500 3508,2500 3538,2592 3538,2683 L 3538,3417 C 3538,3509 3569,3601 3599,3601"/>
       <path fill="none" stroke="rgb(0,0,0)" stroke-width="50" d="M 3478,1400 L 3478,1400 Z"/>
       <path fill="none" stroke="rgb(0,0,0)" stroke-width="50" d="M 3600,3601 L 3600,3601 Z"/>
      </g>
     </g>
     <g class="com.sun.star.drawing.TextShape">
      <g id="id21">
       <path fill="none" stroke="rgb(0,0,0)" stroke-width="50" d="M 9277,6702 L 9001,6702 9001,5969 9553,5969 9553,6702 9277,6702 Z"/>
      </g>
     </g>
    </g>
   </g>
  </g>
 </g>
</svg>