<?xml version="1.0" encoding="UTF-8"?>
<!DOCTYPE svg PUBLIC "-//W3C//DTD SVG 1.1//EN" "http://www.w3.org/Graphics/SVG/1.1/DTD/svg11.dtd">
<svg version="1.2" width="215.9mm" height="279.4mm" viewBox="0 0 21590 27940" preserveAspectRatio="xMidYMid" fill-rule="evenodd" clip-path="url(#presentation_clip_path)" stroke-width="28.222" stroke-linejoin="round" xmlns="http://www.w3.org/2000/svg" xmlns:ooo="http://xml.openoffice.org/svg/export" xmlns:xlink="http://www.w3.org/1999/xlink" xml:space="preserve">
 <defs class="ClipPathGroup">
  <clipPath id="presentation_clip_path" clipPathUnits="userSpaceOnUse">
   <rect x="0" y="0" width="21590" height="27940"/>
  </clipPath>
 </defs>
 <defs class="TextShapeIndex">
  <g ooo:slide="id1" ooo:id-list="id3 id4 id5 id6 id7 id8 id9 id10 id11 id12 id13 id14 id15 id16 id17 id18 id19"/>
 </defs>
 <defs class="EmbeddedBulletChars">
  <g id="bullet-char-template(57356)" transform="scale(0.00048828125,-0.00048828125)">
   <path d="M 580,1141 L 1163,571 580,0 -4,571 580,1141 Z"/>
  </g>
  <g id="bullet-char-template(57354)" transform="scale(0.00048828125,-0.00048828125)">
   <path d="M 8,1128 L 1137,1128 1137,0 8,0 8,1128 Z"/>
  </g>
  <g id="bullet-char-template(10146)" transform="scale(0.00048828125,-0.00048828125)">
   <path d="M 174,0 L 602,739 174,1481 1456,739 174,0 Z M 1358,739 L 309,1346 659,739 1358,739 Z"/>
  </g>
  <g id="bullet-char-template(10132)" transform="scale(0.00048828125,-0.00048828125)">
   <path d="M 2015,739 L 1276,0 717,0 1260,543 174,543 174,936 1260,936 717,1481 1274,1481 2015,739 Z"/>
  </g>
  <g id="bullet-char-template(10007)" transform="scale(0.00048828125,-0.00048828125)">
   <path d="M 0,-2 C -7,14 -16,27 -25,37 L 356,567 C 262,823 215,952 215,954 215,979 228,992 255,992 264,992 276,990 289,987 310,991 331,999 354,1012 L 381,999 492,748 772,1049 836,1024 860,1049 C 881,1039 901,1025 922,1006 886,937 835,863 770,784 769,783 710,716 594,584 L 774,223 C 774,196 753,168 711,139 L 727,119 C 717,90 699,76 672,76 641,76 570,178 457,381 L 164,-76 C 142,-110 111,-127 72,-127 30,-127 9,-110 8,-76 1,-67 -2,-52 -2,-32 -2,-23 -1,-13 0,-2 Z"/>
  </g>
  <g id="bullet-char-template(10004)" transform="scale(0.00048828125,-0.00048828125)">
   <path d="M 285,-33 C 182,-33 111,30 74,156 52,228 41,333 41,471 41,549 55,616 82,672 116,743 169,778 240,778 293,778 328,747 346,684 L 369,508 C 377,444 397,411 428,410 L 1163,1116 C 1174,1127 1196,1133 1229,1133 1271,1133 1292,1118 1292,1087 L 1292,965 C 1292,929 1282,901 1262,881 L 442,47 C 390,-6 338,-33 285,-33 Z"/>
  </g>
  <g id="bullet-char-template(9679)" transform="scale(0.00048828125,-0.00048828125)">
   <path d="M 813,0 C 632,0 489,54 383,161 276,268 223,411 223,592 223,773 276,916 383,1023 489,1130 632,1184 813,1184 992,1184 1136,1130 1245,1023 1353,916 1407,772 1407,592 1407,412 1353,268 1245,161 1136,54 992,0 813,0 Z"/>
  </g>
  <g id="bullet-char-template(8226)" transform="scale(0.00048828125,-0.00048828125)">
   <path d="M 346,457 C 273,457 209,483 155,535 101,586 74,649 74,723 74,796 101,859 155,911 209,963 273,989 346,989 419,989 480,963 531,910 582,859 608,796 608,723 608,648 583,586 532,535 482,483 420,457 346,457 Z"/>
  </g>
  <g id="bullet-char-template(8211)" transform="scale(0.00048828125,-0.00048828125)">
   <path d="M -4,459 L 1135,459 1135,606 -4,606 -4,459 Z"/>
  </g>
 </defs>
 <defs class="TextEmbeddedBitmaps"/>
 <g>
  <g id="id2" class="Master_Slide">
   <g id="bg-id2" class="Background"/>
   <g id="bo-id2" class="BackgroundObjects"/>
  </g>
 </g>
 <g class="SlideGroup">
  <g>
   <g id="id1" class="Slide" clip-path="url(#presentation_clip_path)">
    <g class="Page">
     <g class="com.sun.star.drawing.LineShape">
      <g id="id3">
       <path fill="none" stroke="rgb(0,0,0)" d="M 3400,5300 L 5506,4373"/>
       <path fill="rgb(0,0,0)" stroke="none" d="M 5900,4200 L 5428,4244 5549,4519 5900,4200 Z"/>
      </g>
     </g>
     <g class="com.sun.star.drawing.TextShape">
      <g id="id4">
       <path fill="rgb(192,192,192)" stroke="none" d="M 2510,5700 L 1945,5700 1945,5017 3074,5017 3074,5700 2510,5700 Z"/>
       <text class="TextShape"><tspan class="TextParagraph" font-family="Arial, sans-serif" font-size="388px" font-weight="400"><tspan class="TextPosition" x="2195" y="5493"><tspan fill="rgb(0,0,0)" stroke="none">first</tspan></tspan></tspan></text>
      </g>
     </g>
     <g class="com.sun.star.drawing.TextShape">
      <g id="id5">
       <path fill="none" stroke="rgb(0,0,0)" stroke-width="50" d="M 6376,4704 L 6100,4704 6100,3467 6652,3467 6652,4704 6376,4704 Z"/>
      </g>
     </g>
     <g class="com.sun.star.drawing.LineShape">
      <g id="id6">
       <path fill="none" stroke="rgb(0,0,0)" stroke-width="50" d="M 4600,7100 L 4600,7049"/>
       <path fill="none" stroke="rgb(0,0,0)" stroke-width="50" d="M 4600,6998 L 4600,6947"/>
       <path fill="none" stroke="rgb(0,0,0)" stroke-width="50" d="M 4600,6896 L 4600,6845"/>
       <path fill="none" stroke="rgb(0,0,0)" stroke-width="50" d="M 4600,6794 L 4600,6743"/>
       <path fill="none" stroke="rgb(0,0,0)" stroke-width="50" d="M 4600,6692 L 4600,6641"/>
       <path fill="none" stroke="rgb(0,0,0)" stroke-width="50" d="M 4600,6590 L 4600,6539"/>
       <path fill="none" stroke="rgb(0,0,0)" stroke-width="50" d="M 4600,6488 L 4600,6437"/>
       <path fill="none" stroke="rgb(0,0,0)" stroke-width="50" d="M 4600,6386 L 4600,6335"/>
       <path fill="none" stroke="rgb(0,0,0)" stroke-width="50" d="M 4600,6284 L 4600,6233"/>
       <path fill="none" stroke="rgb(0,0,0)" stroke-width="50" d="M 4600,6182 L 4600,6131"/>
       <path fill="none" stroke="rgb(0,0,0)" stroke-width="50" d="M 4600,6080 L 4600,6029"/>
       <path fill="none" stroke="rgb(0,0,0)" stroke-width="50" d="M 4600,5978 L 4600,5927"/>
       <path fill="none" stroke="rgb(0,0,0)" stroke-width="50" d="M 4600,5876 L 4600,5825"/>
       <path fill="none" stroke="rgb(0,0,0)" stroke-width="50" d="M 4600,5774 L 4600,5723"/>
       <path fill="none" stroke="rgb(0,0,0)" stroke-width="50" d="M 4600,5672 L 4600,5621"/>
       <path fill="none" stroke="rgb(0,0,0)" stroke-width="50" d="M 4600,5570 L 4600,5519"/>
       <path fill="none" stroke="rgb(0,0,0)" stroke-width="50" d="M 4600,5468 L 4600,5417"/>
       <path fill="none" stroke="rgb(0,0,0)" stroke-width="50" d="M 4600,5366 L 4600,5315"/>
       <path fill="none" stroke="rgb(0,0,0)" stroke-width="50" d="M 4600,5264 L 4600,5213"/>
       <path fill="none" stroke="rgb(0,0,0)" stroke-width="50" d="M 4600,5162 L 4600,5111"/>
       <path fill="none" stroke="rgb(0,0,0)" stroke-width="50" d="M 4600,5060 L 4600,5009"/>
       <path fill="none" stroke="rgb(0,0,0)" stroke-width="50" d="M 4600,4958 L 4600,4907"/>
       <path fill="none" stroke="rgb(0,0,0)" stroke-width="50" d="M 4600,4856 L 4600,4805"/>
       <path fill="none" stroke="rgb(0,0,0)" stroke-width="50" d="M 4600,4754 L 4600,4703"/>
       <path fill="none" stroke="rgb(0,0,0)" stroke-width="50" d="M 4600,4652 L 4600,4601"/>
       <path fill="none" stroke="rgb(0,0,0)" stroke-width="50" d="M 4600,4550 L 4600,4499"/>
       <path fill="none" stroke="rgb(0,0,0)" stroke-width="50" d="M 4600,4448 L 4600,4397"/>
       <path fill="none" stroke="rgb(0,0,0)" stroke-width="50" d="M 4600,4346 L 4600,4295"/>
       <path fill="none" stroke="rgb(0,0,0)" stroke-width="50" d="M 4600,4244 L 4600,4193"/>
       <path fill="none" stroke="rgb(0,0,0)" stroke-width="50" d="M 4600,4142 L 4600,4091"/>
       <path fill="none" stroke="rgb(0,0,0)" stroke-width="50" d="M 4600,4040 L 4600,3989"/>
       <path fill="none" stroke="rgb(0,0,0)" stroke-width="50" d="M 4600,3938 L 4600,3887"/>
       <path fill="none" stroke="rgb(0,0,0)" stroke-width="50" d="M 4600,3836 L 4600,3785"/>
       <path fill="none" stroke="rgb(0,0,0)" stroke-width="50" d="M 4600,3734 L 4600,3683"/>
       <path fill="none" stroke="rgb(0,0,0)" stroke-width="50" d="M 4600,3632 L 4600,3581"/>
       <path fill="none" stroke="rgb(0,0,0)" stroke-width="50" d="M 4600,3530 L 4600,3479"/>
       <path fill="none" stroke="rgb(0,0,0)" stroke-width="50" d="M 4600,3428 L 4600,3377"/>
       <path fill="none" stroke="rgb(0,0,0)" stroke-width="50" d="M 4600,3326 L 4600,3275"/>
       <path fill="none" stroke="rgb(0,0,0)" stroke-width="50" d="M 4600,3224 L 4600,3173"/>
       <path fill="none" stroke="rgb(0,0,0)" stroke-width="50" d="M 4600,3122 L 4600,3071"/>
       <path fill="none" stroke="rgb(0,0,0)" stroke-width="50" d="M 4600,3020 L 4600,2969"/>
       <path fill="none" stroke="rgb(0,0,0)" stroke-width="50" d="M 4600,2918 L 4600,2867"/>
       <path fill="none" stroke="rgb(0,0,0)" stroke-width="50" d="M 4600,2816 L 4600,2765"/>
       <path fill="none" stroke="rgb(0,0,0)" stroke-width="50" d="M 4600,2714 L 4600,2663"/>
       <path fill="none" stroke="rgb(0,0,0)" stroke-width="50" d="M 4600,2612 L 4600,2561"/>
       <path fill="none" stroke="rgb(0,0,0)" stroke-width="50" d="M 4600,2510 L 4600,2459"/>
       <path fill="none" stroke="rgb(0,0,0)" stroke-width="50" d="M 4600,2408 L 4600,2357"/>
       <path fill="none" stroke="rgb(0,0,0)" stroke-width="50" d="M 4600,2306 L 4600,2255"/>
       <path fill="none" stroke="rgb(0,0,0)" stroke-width="50" d="M 4600,2204 L 4600,2153"/>
       <path fill="none" stroke="rgb(0,0,0)" stroke-width="50" d="M 4600,2102 L 4600,2051"/>
       <path fill="none" stroke="rgb(0,0,0)" stroke-width="50" d="M 4600,2000 L 4600,1949"/>
       <path fill="none" stroke="rgb(0,0,0)" stroke-width="50" d="M 4600,1898 L 4600,1847"/>
       <path fill="none" stroke="rgb(0,0,0)" stroke-width="50" d="M 4600,1796 L 4600,1745"/>
       <path fill="none" stroke="rgb(0,0,0)" stroke-width="50" d="M 4600,1694 L 4600,1643"/>
       <path fill="none" stroke="rgb(0,0,0)" stroke-width="50" d="M 4600,1592 L 4600,1541"/>
       <path fill="none" stroke="rgb(0,0,0)" stroke-width="50" d="M 4600,1490 L 4600,1439"/>
       <path fill="none" stroke="rgb(0,0,0)" stroke-width="50" d="M 4600,1388 L 4600,1337"/>
      </g>
     </g>
     <g class="com.sun.star.drawing.LineShape">
      <g id="id7">
       <path fill="none" stroke="rgb(0,0,0)" stroke-width="50" d="M 9100,6100 L 9049,6100"/>
       <path fill="none" stroke="rgb(0,0,0)" stroke-width="50" d="M 8998,6100 L 8947,6100"/>
       <path fill="none" stroke="rgb(0,0,0)" stroke-width="50" d="M 8896,6100 L 8845,6100"/>
       <path fill="none" stroke="rgb(0,0,0)" stroke-width="50" d="M 8794,6100 L 8743,6100"/>
       <path fill="none" stroke="rgb(0,0,0)" stroke-width="50" d="M 8692,6100 L 8641,6100"/>
       <path fill="none" stroke="rgb(0,0,0)" stroke-width="50" d="M 8590,6100 L 8539,6100"/>
       <path fill="none" stroke="rgb(0,0,0)" stroke-width="50" d="M 8488,6100 L 8437,6100"/>
       <path fill="none" stroke="rgb(0,0,0)" stroke-width="50" d="M 8386,6100 L 8335,6100"/>
       <path fill="none" stroke="rgb(0,0,0)" stroke-width="50" d="M 8284,6100 L 8233,6100"/>
       <path fill="none" stroke="rgb(0,0,0)" stroke-width="50" d="M 8182,6100 L 8131,6100"/>
       <path fill="none" stroke="rgb(0,0,0)" stroke-width="50" d="M 8080,6100 L 8029,6100"/>
       <path fill="none" stroke="rgb(0,0,0)" stroke-width="50" d="M 7978,6100 L 7927,6100"/>
       <path fill="none" stroke="rgb(0,0,0)" stroke-width="50" d="M 7876,6100 L 7825,6100"/>
       <path fill="none" stroke="rgb(0,0,0)" stroke-width="50" d="M 7774,6100 L 7723,6100"/>
       <path fill="none" stroke="rgb(0,0,0)" stroke-width="50" d="M 7672,6100 L 7621,6100"/>
       <path fill="none" stroke="rgb(0,0,0)" stroke-width="50" d="M 7570,6100 L 7519,6100"/>
       <path fill="none" stroke="rgb(0,0,0)" stroke-width="50" d="M 7468,6100 L 7417,6100"/>
       <path fill="none" stroke="rgb(0,0,0)" stroke-width="50" d="M 7366,6100 L 7315,6100"/>
       <path fill="none" stroke="rgb(0,0,0)" stroke-width="50" d="M 7264,6100 L 7213,6100"/>
       <path fill="none" stroke="rgb(0,0,0)" stroke-width="50" d="M 7162,6100 L 7111,6100"/>
       <path fill="none" stroke="rgb(0,0,0)" stroke-width="50" d="M 7060,6100 L 7009,6100"/>
       <path fill="none" stroke="rgb(0,0,0)" stroke-width="50" d="M 6958,6100 L 6907,6100"/>
       <path fill="none" stroke="rgb(0,0,0)" stroke-width="50" d="M 6856,6100 L 6805,6100"/>
       <path fill="none" stroke="rgb(0,0,0)" stroke-width="50" d="M 6754,6100 L 6703,6100"/>
       <path fill="none" stroke="rgb(0,0,0)" stroke-width="50" d="M 6652,6100 L 6601,6100"/>
       <path fill="none" stroke="rgb(0,0,0)" stroke-width="50" d="M 6550,6100 L 6499,6100"/>
       <path fill="none" stroke="rgb(0,0,0)" stroke-width="50" d="M 6448,6100 L 6397,6100"/>
       <path fill="none" stroke="rgb(0,0,0)" stroke-width="50" d="M 6346,6100 L 6295,6100"/>
       <path fill="none" stroke="rgb(0,0,0)" stroke-width="50" d="M 6244,6100 L 6193,6100"/>
       <path fill="none" stroke="rgb(0,0,0)" stroke-width="50" d="M 6142,6100 L 6091,6100"/>
       <path fill="none" stroke="rgb(0,0,0)" stroke-width="50" d="M 6040,6100 L 5989,6100"/>
       <path fill="none" stroke="rgb(0,0,0)" stroke-width="50" d="M 5938,6100 L 5887,6100"/>
       <path fill="none" stroke="rgb(0,0,0)" stroke-width="50" d="M 5836,6100 L 5785,6100"/>
       <path fill="none" stroke="rgb(0,0,0)" stroke-width="50" d="M 5734,6100 L 5683,6100"/>
       <path fill="none" stroke="rgb(0,0,0)" stroke-width="50" d="M 5632,6100 L 5581,6100"/>
       <path fill="none" stroke="rgb(0,0,0)" stroke-width="50" d="M 5530,6100 L 5479,6100"/>
       <path fill="none" stroke="rgb(0,0,0)" stroke-width="50" d="M 5428,6100 L 5377,6100"/>
       <path fill="none" stroke="rgb(0,0,0)" stroke-width="50" d="M 5326,6100 L 5275,6100"/>
       <path fill="none" stroke="rgb(0,0,0)" stroke-width="50" d="M 5224,6100 L 5173,6100"/>
       <path fill="none" stroke="rgb(0,0,0)" stroke-width="50" d="M 5122,6100 L 5071,6100"/>
       <path fill="none" stroke="rgb(0,0,0)" stroke-width="50" d="M 5020,6100 L 4969,6100"/>
       <path fill="none" stroke="rgb(0,0,0)" stroke-width="50" d="M 4918,6100 L 4867,6100"/>
       <path fill="none" stroke="rgb(0,0,0)" stroke-width="50" d="M 4816,6100 L 4765,6100"/>
       <path fill="none" stroke="rgb(0,0,0)" stroke-width="50" d="M 4714,6100 L 4663,6100"/>
       <path fill="none" stroke="rgb(0,0,0)" stroke-width="50" d="M 4612,6100 L 4561,6100"/>
       <path fill="none" stroke="rgb(0,0,0)" stroke-width="50" d="M 4510,6100 L 4459,6100"/>
       <path fill="none" stroke="rgb(0,0,0)" stroke-width="50" d="M 4408,6100 L 4357,6100"/>
       <path fill="none" stroke="rgb(0,0,0)" stroke-width="50" d="M 4306,6100 L 4255,6100"/>
       <path fill="none" stroke="rgb(0,0,0)" stroke-width="50" d="M 4204,6100 L 4153,6100"/>
       <path fill="none" stroke="rgb(0,0,0)" stroke-width="50" d="M 4102,6100 L 4051,6100"/>
       <path fill="none" stroke="rgb(0,0,0)" stroke-width="50" d="M 4000,6100 L 3949,6100"/>
       <path fill="none" stroke="rgb(0,0,0)" stroke-width="50" d="M 3898,6100 L 3847,6100"/>
       <path fill="none" stroke="rgb(0,0,0)" stroke-width="50" d="M 3796,6100 L 3745,6100"/>
       <path fill="none" stroke="rgb(0,0,0)" stroke-width="50" d="M 3694,6100 L 3643,6100"/>
       <path fill="none" stroke="rgb(0,0,0)" stroke-width="50" d="M 3592,6100 L 3541,6100"/>
       <path fill="none" stroke="rgb(0,0,0)" stroke-width="50" d="M 3490,6100 L 3439,6100"/>
       <path fill="none" stroke="rgb(0,0,0)" stroke-width="50" d="M 3388,6100 L 3337,6100"/>
       <path fill="none" stroke="rgb(0,0,0)" stroke-width="50" d="M 3286,6100 L 3235,6100"/>
       <path fill="none" stroke="rgb(0,0,0)" stroke-width="50" d="M 3184,6100 L 3133,6100"/>
       <path fill="none" stroke="rgb(0,0,0)" stroke-width="50" d="M 3082,6100 L 3031,6100"/>
       <path fill="none" stroke="rgb(0,0,0)" stroke-width="50" d="M 2980,6100 L 2929,6100"/>
       <path fill="none" stroke="rgb(0,0,0)" stroke-width="50" d="M 2878,6100 L 2827,6100"/>
       <path fill="none" stroke="rgb(0,0,0)" stroke-width="50" d="M 2776,6100 L 2725,6100"/>
       <path fill="none" stroke="rgb(0,0,0)" stroke-width="50" d="M 2674,6100 L 2623,6100"/>
       <path fill="none" stroke="rgb(0,0,0)" stroke-width="50" d="M 2572,6100 L 2521,6100"/>
       <path fill="none" stroke="rgb(0,0,0)" stroke-width="50" d="M 2470,6100 L 2419,6100"/>
       <path fill="none" stroke="rgb(0,0,0)" stroke-width="50" d="M 2368,6100 L 2317,6100"/>
       <path fill="none" stroke="rgb(0,0,0)" stroke-width="50" d="M 2266,6100 L 2215,6100"/>
       <path fill="none" stroke="rgb(0,0,0)" stroke-width="50" d="M 2164,6100 L 2113,6100"/>
       <path fill="none" stroke="rgb(0,0,0)" stroke-width="50" d="M 2062,6100 L 2011,6100"/>
       <path fill="none" stroke="rgb(0,0,0)" stroke-width="50" d="M 1960,6100 L 1909,6100"/>
       <path fill="none" stroke="rgb(0,0,0)" stroke-width="50" d="M 1858,6100 L 1807,6100"/>
       <path fill="none" stroke="rgb(0,0,0)" stroke-width="50" d="M 1756,6100 L 1705,6100"/>
       <path fill="none" stroke="rgb(0,0,0)" stroke-width="50" d="M 1654,6100 L 1603,6100"/>
       <path fill="none" stroke="rgb(0,0,0)" stroke-width="50" d="M 1552,6100 L 1501,6100"/>
       <path fill="none" stroke="rgb(0,0,0)" stroke-width="50" d="M 1450,6100 L 1399,6100"/>
       <path fill="none" stroke="rgb(0,0,0)" stroke-width="50" d="M 1348,6100 L 1297,6100"/>
       <path fill="none" stroke="rgb(0,0,0)" stroke-width="50" d="M 1246,6100 L 1195,6100"/>
       <path fill="none" stroke="rgb(0,0,0)" stroke-width="50" d="M 1144,6100 L 1100,6100"/>
      </g>
     </g>
     <g class="com.sun.star.drawing.TextShape">
      <g id="id8">
       <text class="TextShape"><tspan class="TextParagraph" font-family="Arial, sans-serif" font-size="388px" font-weight="400"><tspan class="TextPosition" x="1991" y="6768"><tspan fill="rgb(0,0,0)" stroke="none">Variables</tspan></tspan></tspan></text>
      </g>
     </g>
     <g class="com.sun.star.drawing.TextShape">
      <g id="id9">
       <text class="TextShape"><tspan class="TextParagraph" font-family="Arial, sans-serif" font-size="388px" font-weight="400"><tspan class="TextPosition" x="5891" y="6769"><tspan fill="rgb(0,0,0)" stroke="none">Values</tspan></tspan></tspan></text>
      </g>
     </g>
     <g class="com.sun.star.drawing.TextShape">
      <g id="id10">
       <path fill="rgb(192,192,192)" stroke="none" d="M 2824,4801 L 1946,4801 1946,4118 3701,4118 3701,4801 2824,4801 Z"/>
       <text class="TextShape"><tspan class="TextParagraph" font-family="Arial, sans-serif" font-size="388px" font-weight="400"><tspan class="TextPosition" x="2196" y="4594"><tspan fill="rgb(0,0,0)" stroke="none">second</tspan></tspan></tspan></text>
      </g>
     </g>
     <g class="com.sun.star.drawing.TextShape">
      <g id="id11">
       <path fill="none" stroke="rgb(0,0,0)" stroke-width="50" d="M 5792,5801 L 5300,5801 5300,5068 6284,5068 6284,5801 5792,5801 Z"/>
       <text class="TextShape"><tspan class="TextParagraph" font-family="Arial, sans-serif" font-size="388px" font-weight="400"><tspan class="TextPosition" x="5575" y="5569"><tspan fill="rgb(0,0,0)" stroke="none">10</tspan></tspan></tspan></text>
      </g>
     </g>
     <g class="com.sun.star.drawing.TextShape">
      <g id="id12">
       <path fill="none" stroke="rgb(0,0,0)" stroke-width="50" d="M 6992,5802 L 6500,5802 6500,5069 7484,5069 7484,5802 6992,5802 Z"/>
       <text class="TextShape"><tspan class="TextParagraph" font-family="Arial, sans-serif" font-size="388px" font-weight="400"><tspan class="TextPosition" x="6775" y="5570"><tspan fill="rgb(0,0,0)" stroke="none">20</tspan></tspan></tspan></text>
      </g>
     </g>
     <g class="com.sun.star.drawing.TextShape">
      <g id="id13">
       <path fill="none" stroke="rgb(0,0,0)" stroke-width="50" d="M 8192,5803 L 7700,5803 7700,5070 8684,5070 8684,5803 8192,5803 Z"/>
       <text class="TextShape"><tspan class="TextParagraph" font-family="Arial, sans-serif" font-size="388px" font-weight="400"><tspan class="TextPosition" x="7975" y="5571"><tspan fill="rgb(0,0,0)" stroke="none">30</tspan></tspan></tspan></text>
      </g>
     </g>
     <g class="com.sun.star.drawing.TextShape">
      <g id="id14">
       <path fill="none" stroke="rgb(0,0,0)" stroke-width="50" d="M 6976,4705 L 6700,4705 6700,3468 7252,3468 7252,4705 6976,4705 Z"/>
      </g>
     </g>
     <g class="com.sun.star.drawing.TextShape">
      <g id="id15">
       <path fill="none" stroke="rgb(0,0,0)" stroke-width="50" d="M 7576,4706 L 7300,4706 7300,3469 7852,3469 7852,4706 7576,4706 Z"/>
      </g>
     </g>
     <g class="com.sun.star.drawing.LineShape">
      <g id="id16">
       <path fill="none" stroke="rgb(0,0,0)" d="M 4000,4500 L 5497,3949"/>
       <path fill="rgb(0,0,0)" stroke="none" d="M 5900,3800 L 5426,3815 5530,4096 5900,3800 Z"/>
      </g>
     </g>
     <g class="com.sun.star.drawing.LineShape">
      <g id="id17">
       <path fill="none" stroke="rgb(0,0,0)" d="M 6400,3800 L 6006,4523"/>
       <path fill="rgb(0,0,0)" stroke="none" d="M 5800,4900 L 6147,4577 5884,4433 5800,4900 Z"/>
      </g>
     </g>
     <g class="com.sun.star.drawing.LineShape">
      <g id="id18">
       <path fill="none" stroke="rgb(0,0,0)" d="M 7000,3800 L 7000,4470"/>
       <path fill="rgb(0,0,0)" stroke="none" d="M 7000,4900 L 7150,4450 6850,4450 7000,4900 Z"/>
      </g>
     </g>
     <g class="com.sun.star.drawing.LineShape">
      <g id="id19">
       <path fill="none" stroke="rgb(0,0,0)" d="M 7600,3800 L 7994,4523"/>
       <path fill="rgb(0,0,0)" stroke="none" d="M 8200,4900 L 8116,4433 7853,4577 8200,4900 Z"/>
      </g>
     </g>
    </g>
   </g>
  </g>
 </g>
</svg>